<svg xmlns="http://www.w3.org/2000/svg" version="1.1" xmlns:xlink="http://www.w3.org/1999/xlink" xmlns:svgjs="http://svgjs.com/svgjs" width="1000" height="1000"><rect width="1000" height="1000" rx="200" ry="200" fill="#000000"></rect><g transform="matrix(1.8,0,0,1.8,50.0207489013672,49.97497577667235)"><svg xmlns="http://www.w3.org/2000/svg" version="1.1" xmlns:xlink="http://www.w3.org/1999/xlink" xmlns:svgjs="http://svgjs.com/svgjs" width="500" height="500"><svg xmlns="http://www.w3.org/2000/svg" xmlns:xlink="http://www.w3.org/1999/xlink" width="500" zoomAndPan="magnify" viewBox="0 0 375 374.999991" height="500" preserveAspectRatio="xMidYMid meet" version="1.0"><defs><clipPath id="cceb51d3b1"><path d="M 92 90.121094 L 284 90.121094 L 284 285.121094 L 92 285.121094 Z M 92 90.121094 " clip-rule="nonzero"></path></clipPath><clipPath id="9825a48a77"><path d="M 27.355469 1.148438 L 347.605469 1.148438 L 347.605469 373.898438 L 27.355469 373.898438 Z M 27.355469 1.148438 " clip-rule="nonzero"></path></clipPath><clipPath id="2e79a2a78a"><path d="M 187.480469 1.148438 L 347.605469 94.335938 L 347.605469 280.710938 L 187.480469 373.898438 L 27.355469 280.710938 L 27.355469 94.335938 Z M 187.480469 1.148438 " clip-rule="nonzero"></path></clipPath><linearGradient x1="-2.249999" gradientTransform="matrix(7.764405, 0, 0, 7.764404, 0.000000346557, -0.0000122968)" y1="2.250001" x2="57.249998" gradientUnits="userSpaceOnUse" y2="61.749998" id="58029e3f10"><stop stop-opacity="1" stop-color="rgb(0%, 0%, 0%)" offset="0"></stop><stop stop-opacity="1" stop-color="rgb(0.611877%, 0.444031%, 0.0671387%)" offset="0.00390625"></stop><stop stop-opacity="1" stop-color="rgb(1.223755%, 0.888062%, 0.134277%)" offset="0.0078125"></stop><stop stop-opacity="1" stop-color="rgb(1.835632%, 1.332092%, 0.201416%)" offset="0.0117188"></stop><stop stop-opacity="1" stop-color="rgb(2.449036%, 1.777649%, 0.268555%)" offset="0.015625"></stop><stop stop-opacity="1" stop-color="rgb(3.060913%, 2.22168%, 0.335693%)" offset="0.0195312"></stop><stop stop-opacity="1" stop-color="rgb(3.674316%, 2.66571%, 0.402832%)" offset="0.0234375"></stop><stop stop-opacity="1" stop-color="rgb(4.286194%, 3.109741%, 0.469971%)" offset="0.0273438"></stop><stop stop-opacity="1" stop-color="rgb(4.899597%, 3.555298%, 0.537109%)" offset="0.03125"></stop><stop stop-opacity="1" stop-color="rgb(5.511475%, 3.999329%, 0.604248%)" offset="0.0351562"></stop><stop stop-opacity="1" stop-color="rgb(6.124878%, 4.444885%, 0.671387%)" offset="0.0390625"></stop><stop stop-opacity="1" stop-color="rgb(6.736755%, 4.888916%, 0.738525%)" offset="0.0429688"></stop><stop stop-opacity="1" stop-color="rgb(7.348633%, 5.332947%, 0.805664%)" offset="0.046875"></stop><stop stop-opacity="1" stop-color="rgb(7.96051%, 5.776978%, 0.872803%)" offset="0.0507812"></stop><stop stop-opacity="1" stop-color="rgb(8.573914%, 6.222534%, 0.939941%)" offset="0.0546875"></stop><stop stop-opacity="1" stop-color="rgb(9.185791%, 6.666565%, 1.00708%)" offset="0.0585938"></stop><stop stop-opacity="1" stop-color="rgb(9.799194%, 7.112122%, 1.074219%)" offset="0.0625"></stop><stop stop-opacity="1" stop-color="rgb(10.411072%, 7.556152%, 1.141357%)" offset="0.0664062"></stop><stop stop-opacity="1" stop-color="rgb(11.024475%, 8.000183%, 1.208496%)" offset="0.0703125"></stop><stop stop-opacity="1" stop-color="rgb(11.636353%, 8.444214%, 1.275635%)" offset="0.0742188"></stop><stop stop-opacity="1" stop-color="rgb(12.249756%, 8.889771%, 1.342773%)" offset="0.078125"></stop><stop stop-opacity="1" stop-color="rgb(12.861633%, 9.333801%, 1.409912%)" offset="0.0820312"></stop><stop stop-opacity="1" stop-color="rgb(13.473511%, 9.779358%, 1.477051%)" offset="0.0859375"></stop><stop stop-opacity="1" stop-color="rgb(14.085388%, 10.223389%, 1.544189%)" offset="0.0898437"></stop><stop stop-opacity="1" stop-color="rgb(14.698792%, 10.667419%, 1.611328%)" offset="0.09375"></stop><stop stop-opacity="1" stop-color="rgb(15.310669%, 11.11145%, 1.678467%)" offset="0.0976562"></stop><stop stop-opacity="1" stop-color="rgb(15.924072%, 11.557007%, 1.745605%)" offset="0.101562"></stop><stop stop-opacity="1" stop-color="rgb(16.53595%, 12.001038%, 1.812744%)" offset="0.105469"></stop><stop stop-opacity="1" stop-color="rgb(17.149353%, 12.446594%, 1.879883%)" offset="0.109375"></stop><stop stop-opacity="1" stop-color="rgb(17.76123%, 12.890625%, 1.947021%)" offset="0.113281"></stop><stop stop-opacity="1" stop-color="rgb(18.374634%, 13.334656%, 2.01416%)" offset="0.117187"></stop><stop stop-opacity="1" stop-color="rgb(18.986511%, 13.778687%, 2.081299%)" offset="0.121094"></stop><stop stop-opacity="1" stop-color="rgb(19.599915%, 14.224243%, 2.149963%)" offset="0.125"></stop><stop stop-opacity="1" stop-color="rgb(20.211792%, 14.668274%, 2.217102%)" offset="0.128906"></stop><stop stop-opacity="1" stop-color="rgb(20.823669%, 15.113831%, 2.284241%)" offset="0.132812"></stop><stop stop-opacity="1" stop-color="rgb(21.435547%, 15.557861%, 2.351379%)" offset="0.136719"></stop><stop stop-opacity="1" stop-color="rgb(22.04895%, 16.001892%, 2.418518%)" offset="0.140625"></stop><stop stop-opacity="1" stop-color="rgb(22.660828%, 16.445923%, 2.485657%)" offset="0.144531"></stop><stop stop-opacity="1" stop-color="rgb(23.274231%, 16.891479%, 2.552795%)" offset="0.148438"></stop><stop stop-opacity="1" stop-color="rgb(23.886108%, 17.33551%, 2.619934%)" offset="0.152344"></stop><stop stop-opacity="1" stop-color="rgb(24.499512%, 17.781067%, 2.687073%)" offset="0.15625"></stop><stop stop-opacity="1" stop-color="rgb(25.111389%, 18.225098%, 2.754211%)" offset="0.160156"></stop><stop stop-opacity="1" stop-color="rgb(25.724792%, 18.669128%, 2.82135%)" offset="0.164063"></stop><stop stop-opacity="1" stop-color="rgb(26.33667%, 19.113159%, 2.888489%)" offset="0.167969"></stop><stop stop-opacity="1" stop-color="rgb(26.948547%, 19.558716%, 2.955627%)" offset="0.171875"></stop><stop stop-opacity="1" stop-color="rgb(27.560425%, 20.002747%, 3.022766%)" offset="0.175781"></stop><stop stop-opacity="1" stop-color="rgb(28.173828%, 20.448303%, 3.089905%)" offset="0.179688"></stop><stop stop-opacity="1" stop-color="rgb(28.785706%, 20.892334%, 3.157043%)" offset="0.183594"></stop><stop stop-opacity="1" stop-color="rgb(29.399109%, 21.336365%, 3.224182%)" offset="0.1875"></stop><stop stop-opacity="1" stop-color="rgb(30.010986%, 21.780396%, 3.291321%)" offset="0.191406"></stop><stop stop-opacity="1" stop-color="rgb(30.62439%, 22.225952%, 3.358459%)" offset="0.195313"></stop><stop stop-opacity="1" stop-color="rgb(31.236267%, 22.669983%, 3.425598%)" offset="0.199219"></stop><stop stop-opacity="1" stop-color="rgb(31.84967%, 23.11554%, 3.492737%)" offset="0.203125"></stop><stop stop-opacity="1" stop-color="rgb(32.461548%, 23.55957%, 3.559875%)" offset="0.207031"></stop><stop stop-opacity="1" stop-color="rgb(33.074951%, 24.003601%, 3.627014%)" offset="0.210937"></stop><stop stop-opacity="1" stop-color="rgb(33.686829%, 24.447632%, 3.694153%)" offset="0.214844"></stop><stop stop-opacity="1" stop-color="rgb(34.298706%, 24.893188%, 3.761292%)" offset="0.21875"></stop><stop stop-opacity="1" stop-color="rgb(34.910583%, 25.337219%, 3.82843%)" offset="0.222656"></stop><stop stop-opacity="1" stop-color="rgb(35.523987%, 25.782776%, 3.895569%)" offset="0.226562"></stop><stop stop-opacity="1" stop-color="rgb(36.135864%, 26.226807%, 3.962708%)" offset="0.230469"></stop><stop stop-opacity="1" stop-color="rgb(36.749268%, 26.670837%, 4.029846%)" offset="0.234375"></stop><stop stop-opacity="1" stop-color="rgb(37.361145%, 27.114868%, 4.096985%)" offset="0.238281"></stop><stop stop-opacity="1" stop-color="rgb(37.974548%, 27.560425%, 4.164124%)" offset="0.242188"></stop><stop stop-opacity="1" stop-color="rgb(38.586426%, 28.004456%, 4.231262%)" offset="0.246094"></stop><stop stop-opacity="1" stop-color="rgb(39.199829%, 28.448486%, 4.299927%)" offset="0.25"></stop><stop stop-opacity="1" stop-color="rgb(39.811707%, 28.892517%, 4.367065%)" offset="0.253906"></stop><stop stop-opacity="1" stop-color="rgb(40.423584%, 29.338074%, 4.434204%)" offset="0.257812"></stop><stop stop-opacity="1" stop-color="rgb(41.035461%, 29.782104%, 4.501343%)" offset="0.261719"></stop><stop stop-opacity="1" stop-color="rgb(41.648865%, 30.227661%, 4.568481%)" offset="0.265625"></stop><stop stop-opacity="1" stop-color="rgb(42.260742%, 30.671692%, 4.63562%)" offset="0.269531"></stop><stop stop-opacity="1" stop-color="rgb(42.874146%, 31.115723%, 4.702759%)" offset="0.273438"></stop><stop stop-opacity="1" stop-color="rgb(43.486023%, 31.559753%, 4.769897%)" offset="0.277344"></stop><stop stop-opacity="1" stop-color="rgb(44.099426%, 32.00531%, 4.837036%)" offset="0.28125"></stop><stop stop-opacity="1" stop-color="rgb(44.711304%, 32.449341%, 4.904175%)" offset="0.285156"></stop><stop stop-opacity="1" stop-color="rgb(45.324707%, 32.894897%, 4.971313%)" offset="0.289062"></stop><stop stop-opacity="1" stop-color="rgb(45.936584%, 33.338928%, 5.038452%)" offset="0.292969"></stop><stop stop-opacity="1" stop-color="rgb(46.549988%, 33.782959%, 5.105591%)" offset="0.296875"></stop><stop stop-opacity="1" stop-color="rgb(47.161865%, 34.22699%, 5.172729%)" offset="0.300781"></stop><stop stop-opacity="1" stop-color="rgb(47.773743%, 34.672546%, 5.239868%)" offset="0.304688"></stop><stop stop-opacity="1" stop-color="rgb(48.38562%, 35.116577%, 5.307007%)" offset="0.308594"></stop><stop stop-opacity="1" stop-color="rgb(48.999023%, 35.562134%, 5.374146%)" offset="0.3125"></stop><stop stop-opacity="1" stop-color="rgb(49.610901%, 36.006165%, 5.441284%)" offset="0.316406"></stop><stop stop-opacity="1" stop-color="rgb(50.224304%, 36.450195%, 5.508423%)" offset="0.320312"></stop><stop stop-opacity="1" stop-color="rgb(50.836182%, 36.894226%, 5.575562%)" offset="0.324219"></stop><stop stop-opacity="1" stop-color="rgb(51.449585%, 37.339783%, 5.6427%)" offset="0.328125"></stop><stop stop-opacity="1" stop-color="rgb(52.061462%, 37.783813%, 5.709839%)" offset="0.332031"></stop><stop stop-opacity="1" stop-color="rgb(52.674866%, 38.22937%, 5.776978%)" offset="0.335937"></stop><stop stop-opacity="1" stop-color="rgb(53.286743%, 38.673401%, 5.844116%)" offset="0.339844"></stop><stop stop-opacity="1" stop-color="rgb(53.898621%, 39.117432%, 5.911255%)" offset="0.34375"></stop><stop stop-opacity="1" stop-color="rgb(54.510498%, 39.561462%, 5.978394%)" offset="0.347656"></stop><stop stop-opacity="1" stop-color="rgb(55.123901%, 40.007019%, 6.045532%)" offset="0.351562"></stop><stop stop-opacity="1" stop-color="rgb(55.735779%, 40.45105%, 6.112671%)" offset="0.355469"></stop><stop stop-opacity="1" stop-color="rgb(56.349182%, 40.896606%, 6.17981%)" offset="0.359375"></stop><stop stop-opacity="1" stop-color="rgb(56.96106%, 41.340637%, 6.246948%)" offset="0.363281"></stop><stop stop-opacity="1" stop-color="rgb(57.574463%, 41.784668%, 6.315613%)" offset="0.367188"></stop><stop stop-opacity="1" stop-color="rgb(58.18634%, 42.228699%, 6.382751%)" offset="0.371094"></stop><stop stop-opacity="1" stop-color="rgb(58.799744%, 42.674255%, 6.44989%)" offset="0.375"></stop><stop stop-opacity="1" stop-color="rgb(59.411621%, 43.118286%, 6.517029%)" offset="0.378906"></stop><stop stop-opacity="1" stop-color="rgb(60.023499%, 43.563843%, 6.584167%)" offset="0.382812"></stop><stop stop-opacity="1" stop-color="rgb(60.635376%, 44.007874%, 6.651306%)" offset="0.386719"></stop><stop stop-opacity="1" stop-color="rgb(61.248779%, 44.451904%, 6.718445%)" offset="0.390625"></stop><stop stop-opacity="1" stop-color="rgb(61.860657%, 44.895935%, 6.785583%)" offset="0.394531"></stop><stop stop-opacity="1" stop-color="rgb(62.47406%, 45.341492%, 6.852722%)" offset="0.398438"></stop><stop stop-opacity="1" stop-color="rgb(63.085938%, 45.785522%, 6.919861%)" offset="0.402344"></stop><stop stop-opacity="1" stop-color="rgb(63.699341%, 46.231079%, 6.987%)" offset="0.40625"></stop><stop stop-opacity="1" stop-color="rgb(64.311218%, 46.67511%, 7.054138%)" offset="0.410156"></stop><stop stop-opacity="1" stop-color="rgb(64.924622%, 47.119141%, 7.121277%)" offset="0.414062"></stop><stop stop-opacity="1" stop-color="rgb(65.536499%, 47.563171%, 7.188416%)" offset="0.417969"></stop><stop stop-opacity="1" stop-color="rgb(66.149902%, 48.008728%, 7.255554%)" offset="0.421875"></stop><stop stop-opacity="1" stop-color="rgb(66.76178%, 48.452759%, 7.322693%)" offset="0.425781"></stop><stop stop-opacity="1" stop-color="rgb(67.373657%, 48.898315%, 7.389832%)" offset="0.429687"></stop><stop stop-opacity="1" stop-color="rgb(67.985535%, 49.342346%, 7.45697%)" offset="0.433594"></stop><stop stop-opacity="1" stop-color="rgb(68.598938%, 49.786377%, 7.524109%)" offset="0.4375"></stop><stop stop-opacity="1" stop-color="rgb(69.210815%, 50.230408%, 7.591248%)" offset="0.441406"></stop><stop stop-opacity="1" stop-color="rgb(69.824219%, 50.675964%, 7.658386%)" offset="0.445312"></stop><stop stop-opacity="1" stop-color="rgb(70.436096%, 51.119995%, 7.725525%)" offset="0.449219"></stop><stop stop-opacity="1" stop-color="rgb(71.0495%, 51.565552%, 7.792664%)" offset="0.453125"></stop><stop stop-opacity="1" stop-color="rgb(71.661377%, 52.009583%, 7.859802%)" offset="0.457031"></stop><stop stop-opacity="1" stop-color="rgb(72.27478%, 52.453613%, 7.926941%)" offset="0.460938"></stop><stop stop-opacity="1" stop-color="rgb(72.886658%, 52.897644%, 7.99408%)" offset="0.464844"></stop><stop stop-opacity="1" stop-color="rgb(73.498535%, 53.343201%, 8.061218%)" offset="0.46875"></stop><stop stop-opacity="1" stop-color="rgb(74.110413%, 53.787231%, 8.128357%)" offset="0.472656"></stop><stop stop-opacity="1" stop-color="rgb(74.723816%, 54.232788%, 8.195496%)" offset="0.476562"></stop><stop stop-opacity="1" stop-color="rgb(75.335693%, 54.676819%, 8.262634%)" offset="0.480469"></stop><stop stop-opacity="1" stop-color="rgb(75.949097%, 55.12085%, 8.329773%)" offset="0.484375"></stop><stop stop-opacity="1" stop-color="rgb(76.560974%, 55.56488%, 8.396912%)" offset="0.488281"></stop><stop stop-opacity="1" stop-color="rgb(77.174377%, 56.010437%, 8.465576%)" offset="0.492188"></stop><stop stop-opacity="1" stop-color="rgb(77.786255%, 56.454468%, 8.532715%)" offset="0.496094"></stop><stop stop-opacity="1" stop-color="rgb(78.399658%, 56.898499%, 8.599854%)" offset="0.5"></stop><stop stop-opacity="1" stop-color="rgb(78.567505%, 57.235718%, 9.313965%)" offset="0.503906"></stop><stop stop-opacity="1" stop-color="rgb(78.736877%, 57.572937%, 10.028076%)" offset="0.507812"></stop><stop stop-opacity="1" stop-color="rgb(78.904724%, 57.90863%, 10.740662%)" offset="0.511719"></stop><stop stop-opacity="1" stop-color="rgb(79.074097%, 58.24585%, 11.454773%)" offset="0.515625"></stop><stop stop-opacity="1" stop-color="rgb(79.241943%, 58.583069%, 12.168884%)" offset="0.519531"></stop><stop stop-opacity="1" stop-color="rgb(79.411316%, 58.920288%, 12.882996%)" offset="0.523438"></stop><stop stop-opacity="1" stop-color="rgb(79.579163%, 59.255981%, 13.597107%)" offset="0.527344"></stop><stop stop-opacity="1" stop-color="rgb(79.748535%, 59.593201%, 14.311218%)" offset="0.53125"></stop><stop stop-opacity="1" stop-color="rgb(79.917908%, 59.928894%, 15.02533%)" offset="0.535156"></stop><stop stop-opacity="1" stop-color="rgb(80.08728%, 60.266113%, 15.739441%)" offset="0.539062"></stop><stop stop-opacity="1" stop-color="rgb(80.255127%, 60.603333%, 16.453552%)" offset="0.542969"></stop><stop stop-opacity="1" stop-color="rgb(80.4245%, 60.940552%, 17.167664%)" offset="0.546875"></stop><stop stop-opacity="1" stop-color="rgb(80.592346%, 61.276245%, 17.881775%)" offset="0.550781"></stop><stop stop-opacity="1" stop-color="rgb(80.761719%, 61.613464%, 18.595886%)" offset="0.554688"></stop><stop stop-opacity="1" stop-color="rgb(80.929565%, 61.949158%, 19.309998%)" offset="0.558594"></stop><stop stop-opacity="1" stop-color="rgb(81.098938%, 62.286377%, 20.024109%)" offset="0.5625"></stop><stop stop-opacity="1" stop-color="rgb(81.266785%, 62.623596%, 20.73822%)" offset="0.566406"></stop><stop stop-opacity="1" stop-color="rgb(81.436157%, 62.960815%, 21.452332%)" offset="0.570312"></stop><stop stop-opacity="1" stop-color="rgb(81.60553%, 63.296509%, 22.166443%)" offset="0.574219"></stop><stop stop-opacity="1" stop-color="rgb(81.774902%, 63.633728%, 22.880554%)" offset="0.578125"></stop><stop stop-opacity="1" stop-color="rgb(81.942749%, 63.969421%, 23.594666%)" offset="0.582031"></stop><stop stop-opacity="1" stop-color="rgb(82.112122%, 64.306641%, 24.308777%)" offset="0.585938"></stop><stop stop-opacity="1" stop-color="rgb(82.279968%, 64.64386%, 25.022888%)" offset="0.589844"></stop><stop stop-opacity="1" stop-color="rgb(82.449341%, 64.981079%, 25.737%)" offset="0.59375"></stop><stop stop-opacity="1" stop-color="rgb(82.617188%, 65.316772%, 26.451111%)" offset="0.597656"></stop><stop stop-opacity="1" stop-color="rgb(82.78656%, 65.653992%, 27.165222%)" offset="0.601562"></stop><stop stop-opacity="1" stop-color="rgb(82.954407%, 65.989685%, 27.879333%)" offset="0.605469"></stop><stop stop-opacity="1" stop-color="rgb(83.123779%, 66.326904%, 28.593445%)" offset="0.609375"></stop><stop stop-opacity="1" stop-color="rgb(83.291626%, 66.664124%, 29.307556%)" offset="0.613281"></stop><stop stop-opacity="1" stop-color="rgb(83.460999%, 67.001343%, 30.021667%)" offset="0.617187"></stop><stop stop-opacity="1" stop-color="rgb(83.630371%, 67.337036%, 30.735779%)" offset="0.621094"></stop><stop stop-opacity="1" stop-color="rgb(83.799744%, 67.674255%, 31.44989%)" offset="0.625"></stop><stop stop-opacity="1" stop-color="rgb(83.96759%, 68.009949%, 32.164001%)" offset="0.628906"></stop><stop stop-opacity="1" stop-color="rgb(84.136963%, 68.347168%, 32.878113%)" offset="0.632812"></stop><stop stop-opacity="1" stop-color="rgb(84.30481%, 68.684387%, 33.590698%)" offset="0.636719"></stop><stop stop-opacity="1" stop-color="rgb(84.474182%, 69.021606%, 34.30481%)" offset="0.640625"></stop><stop stop-opacity="1" stop-color="rgb(84.642029%, 69.3573%, 35.018921%)" offset="0.644531"></stop><stop stop-opacity="1" stop-color="rgb(84.811401%, 69.694519%, 35.733032%)" offset="0.648438"></stop><stop stop-opacity="1" stop-color="rgb(84.979248%, 70.030212%, 36.447144%)" offset="0.652344"></stop><stop stop-opacity="1" stop-color="rgb(85.148621%, 70.367432%, 37.161255%)" offset="0.65625"></stop><stop stop-opacity="1" stop-color="rgb(85.317993%, 70.704651%, 37.875366%)" offset="0.660156"></stop><stop stop-opacity="1" stop-color="rgb(85.487366%, 71.04187%, 38.589478%)" offset="0.664063"></stop><stop stop-opacity="1" stop-color="rgb(85.655212%, 71.377563%, 39.303589%)" offset="0.667969"></stop><stop stop-opacity="1" stop-color="rgb(85.824585%, 71.714783%, 40.0177%)" offset="0.671875"></stop><stop stop-opacity="1" stop-color="rgb(85.992432%, 72.050476%, 40.731812%)" offset="0.675781"></stop><stop stop-opacity="1" stop-color="rgb(86.161804%, 72.387695%, 41.445923%)" offset="0.679688"></stop><stop stop-opacity="1" stop-color="rgb(86.329651%, 72.724915%, 42.160034%)" offset="0.683594"></stop><stop stop-opacity="1" stop-color="rgb(86.499023%, 73.062134%, 42.874146%)" offset="0.6875"></stop><stop stop-opacity="1" stop-color="rgb(86.66687%, 73.397827%, 43.588257%)" offset="0.691406"></stop><stop stop-opacity="1" stop-color="rgb(86.836243%, 73.735046%, 44.302368%)" offset="0.695313"></stop><stop stop-opacity="1" stop-color="rgb(87.005615%, 74.07074%, 45.016479%)" offset="0.699219"></stop><stop stop-opacity="1" stop-color="rgb(87.174988%, 74.407959%, 45.730591%)" offset="0.703125"></stop><stop stop-opacity="1" stop-color="rgb(87.342834%, 74.745178%, 46.444702%)" offset="0.707031"></stop><stop stop-opacity="1" stop-color="rgb(87.512207%, 75.082397%, 47.158813%)" offset="0.710938"></stop><stop stop-opacity="1" stop-color="rgb(87.680054%, 75.418091%, 47.872925%)" offset="0.714844"></stop><stop stop-opacity="1" stop-color="rgb(87.849426%, 75.75531%, 48.587036%)" offset="0.71875"></stop><stop stop-opacity="1" stop-color="rgb(88.017273%, 76.091003%, 49.301147%)" offset="0.722656"></stop><stop stop-opacity="1" stop-color="rgb(88.186646%, 76.428223%, 50.015259%)" offset="0.726562"></stop><stop stop-opacity="1" stop-color="rgb(88.354492%, 76.765442%, 50.72937%)" offset="0.730469"></stop><stop stop-opacity="1" stop-color="rgb(88.523865%, 77.102661%, 51.443481%)" offset="0.734375"></stop><stop stop-opacity="1" stop-color="rgb(88.691711%, 77.438354%, 52.157593%)" offset="0.738281"></stop><stop stop-opacity="1" stop-color="rgb(88.861084%, 77.775574%, 52.871704%)" offset="0.742188"></stop><stop stop-opacity="1" stop-color="rgb(89.030457%, 78.111267%, 53.585815%)" offset="0.746094"></stop><stop stop-opacity="1" stop-color="rgb(89.199829%, 78.448486%, 54.299927%)" offset="0.75"></stop><stop stop-opacity="1" stop-color="rgb(89.367676%, 78.785706%, 55.012512%)" offset="0.753906"></stop><stop stop-opacity="1" stop-color="rgb(89.537048%, 79.122925%, 55.726624%)" offset="0.757812"></stop><stop stop-opacity="1" stop-color="rgb(89.704895%, 79.458618%, 56.440735%)" offset="0.761719"></stop><stop stop-opacity="1" stop-color="rgb(89.874268%, 79.795837%, 57.154846%)" offset="0.765625"></stop><stop stop-opacity="1" stop-color="rgb(90.042114%, 80.133057%, 57.868958%)" offset="0.769531"></stop><stop stop-opacity="1" stop-color="rgb(90.211487%, 80.470276%, 58.583069%)" offset="0.773438"></stop><stop stop-opacity="1" stop-color="rgb(90.379333%, 80.805969%, 59.29718%)" offset="0.777344"></stop><stop stop-opacity="1" stop-color="rgb(90.548706%, 81.143188%, 60.011292%)" offset="0.78125"></stop><stop stop-opacity="1" stop-color="rgb(90.718079%, 81.478882%, 60.725403%)" offset="0.785156"></stop><stop stop-opacity="1" stop-color="rgb(90.887451%, 81.816101%, 61.439514%)" offset="0.789062"></stop><stop stop-opacity="1" stop-color="rgb(91.055298%, 82.15332%, 62.153625%)" offset="0.792969"></stop><stop stop-opacity="1" stop-color="rgb(91.22467%, 82.49054%, 62.867737%)" offset="0.796875"></stop><stop stop-opacity="1" stop-color="rgb(91.392517%, 82.826233%, 63.581848%)" offset="0.800781"></stop><stop stop-opacity="1" stop-color="rgb(91.56189%, 83.163452%, 64.295959%)" offset="0.804687"></stop><stop stop-opacity="1" stop-color="rgb(91.729736%, 83.499146%, 65.010071%)" offset="0.808594"></stop><stop stop-opacity="1" stop-color="rgb(91.899109%, 83.836365%, 65.724182%)" offset="0.8125"></stop><stop stop-opacity="1" stop-color="rgb(92.066956%, 84.173584%, 66.438293%)" offset="0.816406"></stop><stop stop-opacity="1" stop-color="rgb(92.236328%, 84.510803%, 67.152405%)" offset="0.820313"></stop><stop stop-opacity="1" stop-color="rgb(92.404175%, 84.846497%, 67.866516%)" offset="0.824219"></stop><stop stop-opacity="1" stop-color="rgb(92.573547%, 85.183716%, 68.580627%)" offset="0.828125"></stop><stop stop-opacity="1" stop-color="rgb(92.74292%, 85.519409%, 69.294739%)" offset="0.832031"></stop><stop stop-opacity="1" stop-color="rgb(92.912292%, 85.856628%, 70.00885%)" offset="0.835938"></stop><stop stop-opacity="1" stop-color="rgb(93.080139%, 86.193848%, 70.722961%)" offset="0.839844"></stop><stop stop-opacity="1" stop-color="rgb(93.249512%, 86.531067%, 71.437073%)" offset="0.84375"></stop><stop stop-opacity="1" stop-color="rgb(93.417358%, 86.86676%, 72.151184%)" offset="0.847656"></stop><stop stop-opacity="1" stop-color="rgb(93.586731%, 87.203979%, 72.865295%)" offset="0.851563"></stop><stop stop-opacity="1" stop-color="rgb(93.754578%, 87.539673%, 73.579407%)" offset="0.855469"></stop><stop stop-opacity="1" stop-color="rgb(93.92395%, 87.876892%, 74.293518%)" offset="0.859375"></stop><stop stop-opacity="1" stop-color="rgb(94.091797%, 88.214111%, 75.007629%)" offset="0.863281"></stop><stop stop-opacity="1" stop-color="rgb(94.261169%, 88.551331%, 75.721741%)" offset="0.867188"></stop><stop stop-opacity="1" stop-color="rgb(94.430542%, 88.887024%, 76.435852%)" offset="0.871094"></stop><stop stop-opacity="1" stop-color="rgb(94.599915%, 89.224243%, 77.149963%)" offset="0.875"></stop><stop stop-opacity="1" stop-color="rgb(94.767761%, 89.559937%, 77.862549%)" offset="0.878906"></stop><stop stop-opacity="1" stop-color="rgb(94.937134%, 89.897156%, 78.57666%)" offset="0.882813"></stop><stop stop-opacity="1" stop-color="rgb(95.10498%, 90.234375%, 79.290771%)" offset="0.886719"></stop><stop stop-opacity="1" stop-color="rgb(95.274353%, 90.571594%, 80.004883%)" offset="0.890625"></stop><stop stop-opacity="1" stop-color="rgb(95.4422%, 90.907288%, 80.718994%)" offset="0.894531"></stop><stop stop-opacity="1" stop-color="rgb(95.611572%, 91.244507%, 81.433105%)" offset="0.898438"></stop><stop stop-opacity="1" stop-color="rgb(95.779419%, 91.5802%, 82.147217%)" offset="0.902344"></stop><stop stop-opacity="1" stop-color="rgb(95.948792%, 91.917419%, 82.861328%)" offset="0.90625"></stop><stop stop-opacity="1" stop-color="rgb(96.116638%, 92.254639%, 83.575439%)" offset="0.910156"></stop><stop stop-opacity="1" stop-color="rgb(96.286011%, 92.591858%, 84.289551%)" offset="0.914063"></stop><stop stop-opacity="1" stop-color="rgb(96.455383%, 92.927551%, 85.003662%)" offset="0.917969"></stop><stop stop-opacity="1" stop-color="rgb(96.624756%, 93.264771%, 85.717773%)" offset="0.921875"></stop><stop stop-opacity="1" stop-color="rgb(96.792603%, 93.600464%, 86.431885%)" offset="0.925781"></stop><stop stop-opacity="1" stop-color="rgb(96.961975%, 93.937683%, 87.145996%)" offset="0.929688"></stop><stop stop-opacity="1" stop-color="rgb(97.129822%, 94.274902%, 87.860107%)" offset="0.933594"></stop><stop stop-opacity="1" stop-color="rgb(97.299194%, 94.612122%, 88.574219%)" offset="0.9375"></stop><stop stop-opacity="1" stop-color="rgb(97.467041%, 94.947815%, 89.28833%)" offset="0.941406"></stop><stop stop-opacity="1" stop-color="rgb(97.636414%, 95.285034%, 90.002441%)" offset="0.945312"></stop><stop stop-opacity="1" stop-color="rgb(97.80426%, 95.620728%, 90.716553%)" offset="0.949219"></stop><stop stop-opacity="1" stop-color="rgb(97.973633%, 95.957947%, 91.430664%)" offset="0.953125"></stop><stop stop-opacity="1" stop-color="rgb(98.143005%, 96.295166%, 92.144775%)" offset="0.957031"></stop><stop stop-opacity="1" stop-color="rgb(98.312378%, 96.632385%, 92.858887%)" offset="0.960938"></stop><stop stop-opacity="1" stop-color="rgb(98.480225%, 96.968079%, 93.572998%)" offset="0.964844"></stop><stop stop-opacity="1" stop-color="rgb(98.649597%, 97.305298%, 94.287109%)" offset="0.96875"></stop><stop stop-opacity="1" stop-color="rgb(98.817444%, 97.640991%, 95.001221%)" offset="0.972656"></stop><stop stop-opacity="1" stop-color="rgb(98.986816%, 97.97821%, 95.715332%)" offset="0.976562"></stop><stop stop-opacity="1" stop-color="rgb(99.154663%, 98.31543%, 96.429443%)" offset="0.980469"></stop><stop stop-opacity="1" stop-color="rgb(99.324036%, 98.652649%, 97.143555%)" offset="0.984375"></stop><stop stop-opacity="1" stop-color="rgb(99.491882%, 98.988342%, 97.857666%)" offset="0.988281"></stop><stop stop-opacity="1" stop-color="rgb(99.661255%, 99.325562%, 98.571777%)" offset="0.992187"></stop><stop stop-opacity="1" stop-color="rgb(99.829102%, 99.661255%, 99.284363%)" offset="0.996094"></stop><stop stop-opacity="1" stop-color="rgb(99.998474%, 99.998474%, 99.998474%)" offset="1"></stop></linearGradient></defs><g clip-path="url(#cceb51d3b1)"><path fill="#f1d049" d="M 153.117188 223.761719 L 222.136719 223.761719 C 222.066406 224.097656 221.957031 224.425781 221.8125 224.738281 C 221.117188 226.171875 220.375 227.5625 219.683594 228.953125 C 217.828125 232.609375 215.875 236.410156 213.84375 240.117188 C 213.308594 240.785156 212.613281 241.136719 211.761719 241.179688 C 195.765625 241.273438 179.519531 241.273438 163.449219 241.179688 C 162.742188 241.183594 162.140625 240.9375 161.640625 240.441406 C 159.324219 236.035156 157.007812 231.496094 154.785156 227.109375 L 153.15625 223.949219 C 153.15625 223.902344 153.117188 223.804688 153.117188 223.761719 Z M 170.15625 258.894531 C 173.609375 263.289062 177.855469 266.699219 182.890625 269.125 L 182.890625 280.265625 C 182.890625 280.578125 182.921875 280.886719 182.984375 281.195312 C 183.042969 281.5 183.132812 281.800781 183.253906 282.089844 C 183.375 282.375 183.519531 282.652344 183.695312 282.910156 C 183.867188 283.171875 184.066406 283.410156 184.285156 283.632812 C 184.507812 283.855469 184.746094 284.050781 185.007812 284.226562 C 185.269531 284.398438 185.542969 284.542969 185.832031 284.664062 C 186.121094 284.785156 186.417969 284.875 186.722656 284.933594 C 187.03125 284.996094 187.339844 285.027344 187.652344 285.027344 C 187.964844 285.027344 188.273438 284.996094 188.582031 284.933594 C 188.886719 284.875 189.1875 284.785156 189.472656 284.664062 C 189.761719 284.542969 190.039062 284.398438 190.296875 284.226562 C 190.558594 284.050781 190.796875 283.855469 191.019531 283.632812 C 191.238281 283.410156 191.4375 283.171875 191.609375 282.910156 C 191.785156 282.652344 191.929688 282.375 192.050781 282.089844 C 192.171875 281.800781 192.261719 281.5 192.320312 281.195312 C 192.382812 280.886719 192.414062 280.578125 192.414062 280.265625 L 192.414062 268.933594 L 192.503906 268.886719 C 194.355469 268.042969 196.101562 267.027344 197.75 265.839844 C 202.667969 262.003906 206.71875 257.40625 209.902344 252.042969 L 165.207031 252.042969 C 166.667969 254.464844 168.316406 256.75 170.15625 258.894531 Z M 148.503906 138.359375 L 148.207031 138.4375 C 148.335938 133.429688 149.339844 128.605469 151.226562 123.964844 L 151.28125 123.824219 C 151.726562 122.746094 152.246094 121.652344 152.832031 120.550781 C 153.035156 120.167969 153.230469 119.753906 153.453125 119.367188 C 153.855469 118.664062 154.332031 117.964844 154.800781 117.257812 C 155.152344 116.730469 155.480469 116.183594 155.863281 115.683594 C 155.9375 115.578125 155.988281 115.476562 156.066406 115.378906 C 157.574219 113.417969 159.261719 111.628906 161.128906 110.011719 C 160.378906 108.386719 159.476562 106.851562 158.421875 105.40625 C 157.207031 103.914062 155.855469 102.566406 154.363281 101.359375 C 153.144531 100.457031 151.859375 99.667969 150.507812 98.984375 C 150.242188 98.824219 149.992188 98.640625 149.761719 98.429688 C 149.53125 98.21875 149.320312 97.992188 149.132812 97.742188 C 148.949219 97.492188 148.785156 97.226562 148.652344 96.945312 C 148.515625 96.664062 148.410156 96.375 148.332031 96.074219 C 148.25 95.773438 148.203125 95.464844 148.183594 95.15625 C 148.164062 94.84375 148.171875 94.535156 148.214844 94.226562 C 148.253906 93.914062 148.324219 93.613281 148.421875 93.316406 C 148.519531 93.023438 148.648438 92.738281 148.800781 92.46875 C 149.457031 91.367188 150.398438 90.636719 151.632812 90.28125 C 152.917969 89.960938 154.140625 90.121094 155.296875 90.761719 C 158.5625 92.402344 161.4375 94.558594 163.925781 97.238281 C 165.28125 98.695312 166.496094 100.257812 167.578125 101.929688 C 168.132812 102.796875 168.632812 103.695312 169.078125 104.625 C 172.859375 102.730469 176.828125 101.414062 180.992188 100.675781 C 181.417969 100.601562 181.847656 100.53125 182.273438 100.46875 C 183.824219 100.226562 185.386719 100.078125 186.957031 100.023438 L 186.984375 100.023438 C 188.464844 100.015625 189.941406 100.101562 191.410156 100.277344 C 192.128906 100.347656 192.84375 100.457031 193.5625 100.574219 C 194.738281 100.761719 196.003906 101.007812 197.371094 101.335938 L 198.042969 101.546875 C 200.886719 102.296875 203.625 103.332031 206.253906 104.652344 C 206.707031 103.710938 207.214844 102.800781 207.777344 101.921875 C 208.855469 100.253906 210.074219 98.695312 211.425781 97.242188 C 213.90625 94.5625 216.773438 92.40625 220.035156 90.761719 C 221.191406 90.121094 222.414062 89.960938 223.699219 90.28125 C 224.9375 90.632812 225.886719 91.363281 226.546875 92.46875 C 226.699219 92.738281 226.824219 93.023438 226.925781 93.316406 C 227.023438 93.613281 227.09375 93.914062 227.132812 94.226562 C 227.171875 94.535156 227.183594 94.84375 227.164062 95.15625 C 227.144531 95.464844 227.09375 95.769531 227.015625 96.074219 C 226.9375 96.375 226.828125 96.664062 226.695312 96.945312 C 226.558594 97.226562 226.398438 97.492188 226.210938 97.742188 C 226.023438 97.992188 225.816406 98.21875 225.585938 98.429688 C 225.355469 98.636719 225.105469 98.824219 224.839844 98.984375 C 223.488281 99.667969 222.203125 100.457031 220.984375 101.359375 C 219.492188 102.570312 218.136719 103.925781 216.925781 105.421875 C 215.878906 106.859375 214.984375 108.382812 214.234375 109.992188 C 215.964844 111.503906 217.539062 113.164062 218.960938 114.96875 C 219.066406 115.105469 219.179688 115.234375 219.285156 115.375 C 219.394531 115.511719 219.441406 115.550781 219.519531 115.65625 C 221.9375 118.972656 223.800781 122.582031 225.097656 126.476562 C 226.398438 130.371094 227.078125 134.375 227.136719 138.480469 C 226.023438 138.078125 224.945312 137.675781 223.859375 137.277344 C 223.320312 137.074219 222.765625 136.875 222.226562 136.675781 C 221.414062 136.371094 220.613281 136.082031 219.804688 135.78125 C 217.902344 135.066406 215.996094 134.347656 214.09375 133.664062 C 210.152344 132.25 206.136719 130.824219 202.082031 129.410156 C 198.03125 128 193.941406 126.601562 189.867188 125.222656 C 189.230469 125.03125 188.582031 124.9375 187.917969 124.945312 C 186.953125 124.964844 186.011719 125.117188 185.09375 125.410156 C 178.457031 127.695312 171.8125 130.0625 165.25 132.417969 L 158.691406 134.761719 L 155.171875 136.007812 L 148.734375 138.292969 Z M 214.1875 109.953125 L 214.273438 109.746094 C 214.25 109.820312 214.21875 109.882812 214.1875 109.953125 Z M 161.152344 109.988281 C 161.117188 109.90625 161.082031 109.835938 161.046875 109.753906 Z M 278.1875 177.953125 C 276.390625 175.355469 274.289062 173.035156 271.882812 170.996094 C 269.472656 168.953125 266.839844 167.257812 263.984375 165.914062 C 250.328125 158.90625 236.261719 152.855469 221.785156 147.757812 C 215.808594 145.472656 209.925781 143.402344 203.671875 141.132812 C 201.171875 140.207031 198.578125 139.324219 196.03125 138.355469 L 196.03125 138.492188 C 196.21875 139.171875 196.449219 139.835938 196.726562 140.484375 C 198.347656 144.886719 200.015625 149.195312 201.632812 153.546875 C 206.171875 165.636719 210.855469 178.144531 215.765625 190.328125 C 218.757812 197.691406 222.355469 204.746094 226.558594 211.496094 C 227.273438 212.703125 228.078125 213.855469 228.960938 214.949219 C 229.847656 216.039062 230.808594 217.0625 231.84375 218.015625 C 232.878906 218.96875 233.980469 219.839844 235.140625 220.632812 C 236.304688 221.421875 237.519531 222.125 238.785156 222.742188 C 240.050781 223.355469 241.351562 223.875 242.695312 224.296875 C 244.035156 224.722656 245.398438 225.046875 246.789062 225.269531 C 248.175781 225.496094 249.574219 225.617188 250.980469 225.636719 C 252.386719 225.660156 253.789062 225.578125 255.183594 225.390625 C 257.808594 225.097656 260.347656 224.46875 262.808594 223.507812 C 265.269531 222.550781 267.566406 221.289062 269.699219 219.730469 C 271.90625 218.136719 273.890625 216.300781 275.648438 214.21875 C 277.40625 212.136719 278.886719 209.871094 280.085938 207.425781 C 280.664062 206.273438 281.164062 205.082031 281.585938 203.863281 C 282.007812 202.640625 282.347656 201.398438 282.605469 200.132812 C 282.859375 198.867188 283.03125 197.589844 283.121094 196.300781 C 283.207031 195.011719 283.210938 193.722656 283.125 192.433594 C 283.042969 191.144531 282.875 189.863281 282.625 188.597656 C 282.371094 187.332031 282.035156 186.085938 281.621094 184.863281 C 281.203125 183.640625 280.707031 182.453125 280.132812 181.292969 C 279.558594 180.136719 278.910156 179.023438 278.1875 177.953125 Z M 173.636719 154.417969 C 175.679688 149.085938 177.714844 143.753906 179.800781 138.421875 C 179.765625 138.417969 179.734375 138.402344 179.707031 138.378906 C 179.613281 138.378906 179.519531 138.421875 179.429688 138.421875 C 179.144531 138.492188 178.867188 138.585938 178.597656 138.699219 C 173.960938 140.414062 169.285156 142.128906 164.652344 143.84375 C 155.0625 147.363281 145.101562 151.023438 135.421875 154.824219 C 125.023438 158.585938 115.140625 163.40625 105.777344 169.289062 C 104.527344 170.105469 103.34375 171.007812 102.230469 172.003906 C 101.117188 172.996094 100.082031 174.066406 99.128906 175.214844 C 98.175781 176.363281 97.3125 177.578125 96.539062 178.855469 C 95.765625 180.132812 95.09375 181.457031 94.519531 182.835938 C 93.945312 184.214844 93.476562 185.628906 93.113281 187.074219 C 92.75 188.523438 92.5 189.988281 92.355469 191.476562 C 92.210938 192.960938 92.179688 194.449219 92.257812 195.941406 C 92.335938 197.429688 92.527344 198.90625 92.828125 200.371094 C 93.246094 202.394531 93.859375 204.359375 94.664062 206.265625 C 95.472656 208.167969 96.457031 209.976562 97.621094 211.683594 C 98.785156 213.394531 100.105469 214.972656 101.582031 216.421875 C 103.058594 217.867188 104.664062 219.15625 106.394531 220.289062 C 108.074219 221.417969 109.847656 222.371094 111.714844 223.148438 C 113.582031 223.929688 115.507812 224.519531 117.488281 224.921875 C 119.472656 225.320312 121.476562 225.527344 123.496094 225.535156 C 125.519531 225.542969 127.523438 225.351562 129.511719 224.964844 C 131.78125 224.511719 133.972656 223.804688 136.078125 222.839844 C 138.183594 221.878906 140.152344 220.683594 141.980469 219.265625 C 143.808594 217.84375 145.453125 216.230469 146.90625 214.425781 C 148.359375 212.625 149.585938 210.675781 150.585938 208.589844 C 154.324219 201.71875 157.707031 194.679688 160.734375 187.464844 C 165.113281 176.515625 169.46875 165.257812 173.636719 154.417969 Z M 168.449219 196.15625 C 165.855469 201.390625 163.171875 206.855469 160.25 212.96875 L 214.855469 212.96875 L 214.761719 212.738281 C 212.074219 207.089844 209.382812 201.480469 206.699219 195.980469 C 206.40625 195.679688 206.050781 195.527344 205.632812 195.515625 C 198.917969 195.472656 192.015625 195.472656 185.019531 195.472656 C 179.929688 195.472656 174.785156 195.472656 169.597656 195.515625 C 169.132812 195.585938 168.75 195.796875 168.449219 196.15625 Z M 195.269531 167.761719 L 195.050781 167.667969 L 195.050781 167.480469 L 193.90625 164.195312 C 193.117188 161.910156 192.332031 159.652344 191.5 157.339844 L 190.292969 154.054688 C 189.460938 151.640625 188.582031 149.28125 187.652344 146.640625 L 186.726562 149.328125 C 184.410156 155.765625 182.328125 161.605469 180.253906 167.484375 L 180.113281 167.71875 C 179.949219 167.953125 179.808594 168.199219 179.691406 168.457031 C 178.304688 172.210938 176.871094 175.867188 175.433594 179.527344 L 173.578125 184.253906 C 173.488281 184.445312 173.425781 184.648438 173.398438 184.855469 L 201.960938 184.855469 L 200.339844 180.667969 C 198.652344 176.328125 196.984375 172.007812 195.269531 167.761719 Z M 195.269531 167.761719 " fill-opacity="1" fill-rule="nonzero"></path></g><g clip-path="url(#9825a48a77)"><g clip-path="url(#2e79a2a78a)"><path stroke-linecap="butt" transform="matrix(0.749918, 0, 0, 0.750118, 27.357348, 1.150159)" fill="none" stroke-linejoin="miter" d="M 213.520952 -0.00229523 L 427.044409 124.228178 L 427.044409 372.689124 L 213.520952 496.919597 L -0.00250539 372.689124 L -0.00250539 124.228178 Z M 213.520952 -0.00229523 " stroke="url(#58029e3f10)" stroke-width="100" stroke-miterlimit="4"></path></g></g></svg></svg></g></svg>