<svg xmlns="http://www.w3.org/2000/svg" xmlns:xlink="http://www.w3.org/1999/xlink" width="500" zoomAndPan="magnify" viewBox="0 0 375 374.999991" height="500" preserveAspectRatio="xMidYMid meet" version="1.0"><defs><clipPath id="915eeedf2d"><path d="M 76.308594 80.0625 L 299 80.0625 L 299 294.5625 L 76.308594 294.5625 Z M 76.308594 80.0625 " clip-rule="nonzero"/></clipPath></defs><g clip-path="url(#915eeedf2d)"><path fill="#a88805" d="M 111.839844 144.421875 L 111.839844 104.207031 C 111.839844 103.058594 112.453125 101.996094 113.453125 101.421875 L 149.570312 80.640625 C 150.570312 80.0625 151.796875 80.0625 152.800781 80.640625 L 187.738281 100.746094 L 222.675781 80.640625 C 223.675781 80.0625 224.921875 80.0625 225.90625 80.640625 L 262.039062 101.421875 C 263.023438 101.996094 263.652344 103.058594 263.652344 104.207031 L 263.652344 144.480469 L 297.171875 163.769531 C 298.171875 164.347656 298.785156 165.40625 298.785156 166.558594 L 298.785156 208.121094 C 298.785156 209.269531 298.171875 210.335938 297.171875 210.910156 L 265.136719 229.335938 L 265.136719 270.472656 C 265.136719 271.621094 264.523438 272.683594 263.523438 273.257812 L 227.40625 294.039062 C 226.40625 294.613281 225.179688 294.613281 224.175781 294.039062 L 188.933594 273.753906 L 153.671875 294.039062 C 152.671875 294.613281 151.445312 294.613281 150.441406 294.039062 L 114.324219 273.257812 C 113.324219 272.683594 112.710938 271.621094 112.710938 270.472656 L 112.710938 230.761719 L 78.207031 210.910156 C 77.207031 210.335938 76.59375 209.269531 76.59375 208.121094 L 76.59375 166.558594 C 76.59375 165.40625 77.207031 164.347656 78.207031 163.769531 Z M 224.742188 212.652344 L 192.902344 230.96875 L 192.902344 268.613281 L 225.792969 287.539062 L 258.679688 268.613281 L 258.679688 232.035156 C 258.390625 231.964844 258.101562 231.847656 257.824219 231.691406 Z M 184.945312 232.394531 L 150.636719 212.652344 L 119.167969 230.761719 L 119.167969 268.613281 L 152.058594 287.539062 L 184.945312 268.613281 Z M 155.285156 169.484375 L 155.285156 206.265625 L 188.933594 225.621094 L 220.09375 207.691406 L 220.09375 169.484375 L 187.691406 150.839844 Z M 115.503906 149.738281 L 83.050781 168.414062 L 83.050781 206.265625 L 115.941406 225.191406 L 148.34375 206.546875 L 148.34375 168.636719 Z M 259.921875 149.769531 L 227.035156 168.695312 L 227.035156 205.152344 C 227.164062 205.203125 227.292969 205.269531 227.40625 205.335938 L 260.683594 224.476562 L 292.328125 206.265625 L 292.328125 168.414062 Z M 151.621094 162.589844 L 184.074219 143.917969 L 184.074219 106.066406 L 151.183594 87.140625 L 118.296875 106.066406 L 118.296875 143.414062 Z M 257.195312 143.355469 L 257.195312 106.066406 L 224.289062 87.140625 L 191.402344 106.066406 L 191.402344 143.917969 L 223.804688 162.5625 Z M 257.195312 143.355469 " fill-opacity="1" fill-rule="evenodd"/></g></svg>